<?xml version="1.0" standalone="no"?><!DOCTYPE svg PUBLIC "-//W3C//DTD SVG 1.1//EN" "http://www.w3.org/Graphics/SVG/1.1/DTD/svg11.dtd"><svg height="1024" node-id="1" sillyvg="true" template-height="1024" template-width="1024" version="1.1" viewBox="0 0 1024 1024" width="1024" xmlns="http://www.w3.org/2000/svg" xmlns:xlink="http://www.w3.org/1999/xlink"><defs node-id="33"><linearGradient gradientUnits="objectBoundingBox" id="linearGradient-3" node-id="3" spreadMethod="pad" x1="1.046773" x2="0.041686255" y1="0.99935377" y2="0.06549842"><stop offset="0" stop-color="#dce2ec"></stop><stop offset="1" stop-color="#eef1f5"></stop></linearGradient><linearGradient gradientUnits="objectBoundingBox" id="linearGradient-4" node-id="6" spreadMethod="pad" x1="1.0422176" x2="-0.08817519" y1="0.60171896" y2="0.39193857"><stop offset="0" stop-color="#aeb7c4"></stop><stop offset="1" stop-color="#cfd5e0"></stop></linearGradient><linearGradient gradientUnits="objectBoundingBox" id="linearGradient-5" node-id="9" spreadMethod="pad" x1="1.0422176" x2="-0.08817519" y1="0.6027041" y2="0.390892"><stop offset="0" stop-color="#aeb7c4"></stop><stop offset="1" stop-color="#cfd5e0"></stop></linearGradient><linearGradient gradientUnits="objectBoundingBox" id="linearGradient-6" node-id="12" spreadMethod="pad" x1="1.0242943" x2="-0.06873274" y1="0.8108553" y2="0.16976193"><stop offset="0" stop-color="#aeb7c4"></stop><stop offset="1" stop-color="#cfd5e0"></stop></linearGradient><filter height="973.05597" id="filter-2" node-id="15" width="973.05597" x="25.472" y="36.224"><feOffset color-interpolation-filters="linearRGB" dx="0" dy="11" in="SourceAlpha" result="shadowOffsetOuter1"></feOffset><feGaussianBlur color-interpolation-filters="linearRGB" in="shadowOffsetOuter1" result="shadowBlurOuter1" stdDeviation="11 11"></feGaussianBlur><feColorMatrix color-interpolation-filters="linearRGB" in="shadowBlurOuter1" result="result3" type="matrix" values="0 0 0 0 0.39607844 0 0 0 0 0.47843137 0 0 0 0 0.5764706 0 0 0 0.27 0"></feColorMatrix></filter></defs><path d="M 0.00 0.00 L 1024.00 0.00 L 1024.00 1024.00 L 0.00 1024.00 Z" fill="none" id="bg" node-id="20" stroke="none" target-height="1024" target-width="1024" target-x="0" target-y="0"></path><g node-id="88"><path d="M 64.00 64.00 L 960.00 64.00 L 960.00 960.00 L 64.00 960.00 Z" fill="none" group-id="1" id="矩形" node-id="22" stroke="none" target-height="896" target-width="896" target-x="64" target-y="64"></path><g node-id="89"><g node-id="90"><g node-id="91"><g node-id="92"><path d="M 883.80 954.50 L 147.40 960.00 L 141.10 959.80 L 134.90 959.00 L 128.90 957.80 L 123.10 956.10 L 117.40 953.90 L 112.00 951.30 L 106.80 948.30 L 101.90 944.90 L 97.20 941.10 L 92.90 936.90 L 88.80 932.50 L 85.10 927.70 L 81.70 922.60 L 78.70 917.30 L 76.10 911.80 L 73.90 905.90 L 72.20 899.90 L 70.90 893.80 L 70.10 887.40 L 69.70 880.80 L 64.00 150.00 L 64.20 143.40 L 65.00 137.00 L 66.10 130.80 L 67.80 124.80 L 69.90 118.90 L 72.40 113.30 L 75.30 107.90 L 78.60 102.80 L 82.20 97.90 L 86.20 93.40 L 90.50 89.20 L 95.10 85.40 L 100.00 81.90 L 105.10 78.80 L 110.40 76.10 L 116.00 73.80 L 121.80 72.00 L 127.70 70.70 L 133.90 69.80 L 140.20 69.50 L 876.60 64.00 L 883.00 64.30 L 889.10 65.00 L 895.10 66.20 L 900.90 68.00 L 906.60 70.10 L 912.00 72.70 L 917.20 75.70 L 922.10 79.20 L 926.80 83.00 L 931.10 87.10 L 935.20 91.50 L 938.90 96.30 L 942.30 101.40 L 945.30 106.70 L 947.90 112.20 L 950.10 118.10 L 951.80 124.10 L 953.10 130.20 L 953.90 136.60 L 954.30 143.10 L 960.00 874.00 L 959.80 880.60 L 959.10 887.00 L 957.90 893.20 L 956.20 899.20 L 954.10 905.10 L 951.60 910.70 L 948.70 916.10 L 945.40 921.20 L 941.80 926.00 L 937.80 930.50 L 933.50 934.70 L 928.90 938.60 L 924.10 942.10 L 918.90 945.10 L 913.60 947.80 L 908.00 950.10 L 902.20 951.90 L 896.30 953.30 L 890.10 954.10 L 883.80 954.50 Z" fill="#000000" fill-rule="nonzero" filter="url(#filter-2)" group-id="1,2,3,4,5" node-id="82" stroke="none" target-height="896" target-width="896" target-x="64" target-y="64"></path></g></g><path d="M 883.80 954.50 L 147.40 960.00 L 141.10 959.80 L 134.90 959.00 L 128.90 957.80 L 123.10 956.10 L 117.40 953.90 L 112.00 951.30 L 106.80 948.30 L 101.90 944.90 L 97.20 941.10 L 92.90 936.90 L 88.80 932.50 L 85.10 927.70 L 81.70 922.60 L 78.70 917.30 L 76.10 911.80 L 73.90 905.90 L 72.20 899.90 L 70.90 893.80 L 70.10 887.40 L 69.70 880.80 L 64.00 150.00 L 64.20 143.40 L 65.00 137.00 L 66.10 130.80 L 67.80 124.80 L 69.90 118.90 L 72.40 113.30 L 75.30 107.90 L 78.60 102.80 L 82.20 97.90 L 86.20 93.40 L 90.50 89.20 L 95.10 85.40 L 100.00 81.90 L 105.10 78.80 L 110.40 76.10 L 116.00 73.80 L 121.80 72.00 L 127.70 70.70 L 133.90 69.80 L 140.20 69.50 L 876.60 64.00 L 883.00 64.30 L 889.10 65.00 L 895.10 66.20 L 900.90 68.00 L 906.60 70.10 L 912.00 72.70 L 917.20 75.70 L 922.10 79.20 L 926.80 83.00 L 931.10 87.10 L 935.20 91.50 L 938.90 96.30 L 942.30 101.40 L 945.30 106.70 L 947.90 112.20 L 950.10 118.10 L 951.80 124.10 L 953.10 130.20 L 953.90 136.60 L 954.30 143.10 L 960.00 874.00 L 959.80 880.60 L 959.10 887.00 L 957.90 893.20 L 956.20 899.20 L 954.10 905.10 L 951.60 910.70 L 948.70 916.10 L 945.40 921.20 L 941.80 926.00 L 937.80 930.50 L 933.50 934.70 L 928.90 938.60 L 924.10 942.10 L 918.90 945.10 L 913.60 947.80 L 908.00 950.10 L 902.20 951.90 L 896.30 953.30 L 890.10 954.10 L 883.80 954.50 Z" fill="#ffffff" fill-rule="nonzero" group-id="1,2,3" node-id="86" stroke="none" target-height="896" target-width="896" target-x="64" target-y="64"></path></g><path d="M 837.90 848.70 L 191.70 853.70 L 187.10 853.40 L 182.90 852.60 L 178.80 851.20 L 175.00 849.30 L 171.50 847.00 L 168.30 844.10 L 165.50 840.90 L 163.10 837.40 L 161.20 833.50 L 159.80 829.40 L 158.90 825.00 L 158.50 820.40 L 153.60 224.50 L 153.90 219.80 L 154.70 215.40 L 156.00 211.30 L 157.90 207.40 L 160.20 203.80 L 162.90 200.50 L 166.10 197.70 L 169.50 195.20 L 173.30 193.30 L 177.30 191.80 L 181.60 190.90 L 186.10 190.50 L 832.30 185.50 L 836.90 185.80 L 841.20 186.60 L 845.20 188.00 L 849.00 189.90 L 852.50 192.30 L 855.70 195.10 L 858.50 198.30 L 860.90 201.80 L 862.80 205.70 L 864.20 209.80 L 865.10 214.20 L 865.50 218.90 L 870.40 814.70 L 870.10 819.40 L 869.30 823.70 L 868.00 827.90 L 866.10 831.80 L 863.80 835.40 L 861.10 838.70 L 857.90 841.50 L 854.50 844.00 L 850.70 846.00 L 846.70 847.40 L 842.40 848.30 L 837.90 848.70 Z" fill="url(#linearGradient-3)" fill-rule="nonzero" group-id="1,2" id="Path" node-id="28" stroke="none" target-height="668.2" target-width="716.80005" target-x="153.6" target-y="185.5"></path><path d="M 541.90 624.20 L 302.90 625.90 L 421.40 489.20 Z" fill="url(#linearGradient-4)" fill-rule="nonzero" group-id="1,2" id="Path" node-id="29" stroke="none" target-height="136.70001" target-width="239.00003" target-x="302.9" target-y="489.2"></path><path d="M 736.00 623.50 L 392.50 625.90 L 562.60 428.50 Z" fill="url(#linearGradient-5)" fill-rule="nonzero" group-id="1,2" id="Path" node-id="30" stroke="none" target-height="197.40002" target-width="343.5" target-x="392.5" target-y="428.5"></path><path d="M 421.80 432.60 L 425.10 429.40 L 428.10 425.90 L 430.60 422.30 L 432.70 418.40 L 434.40 414.30 L 435.80 410.10 L 436.70 405.90 L 437.20 401.50 L 437.00 392.80 L 436.30 388.50 L 435.20 384.20 L 433.70 380.00 L 431.70 376.00 L 429.30 372.20 L 426.50 368.40 L 423.30 365.00 L 419.90 362.00 L 416.30 359.50 L 412.40 357.30 L 408.40 355.50 L 404.30 354.20 L 400.20 353.20 L 395.90 352.70 L 391.60 352.50 L 387.30 352.90 L 383.10 353.60 L 378.80 354.70 L 374.70 356.30 L 370.80 358.20 L 367.00 360.60 L 363.30 363.50 L 359.90 366.80 L 357.00 370.30 L 354.50 373.90 L 352.40 377.80 L 350.60 381.90 L 349.30 386.10 L 348.40 390.30 L 347.90 394.70 L 347.70 399.00 L 348.00 403.40 L 348.80 407.70 L 349.90 412.00 L 351.40 416.10 L 353.40 420.10 L 355.70 424.00 L 358.60 427.70 L 361.80 431.20 L 365.20 434.20 L 368.80 436.70 L 372.60 438.90 L 376.60 440.70 L 380.70 442.00 L 384.90 443.00 L 389.20 443.50 L 393.50 443.70 L 397.80 443.40 L 402.00 442.60 L 406.30 441.50 L 410.30 440.00 L 414.30 438.00 L 418.10 435.50 L 421.80 432.60 Z" fill="url(#linearGradient-6)" fill-rule="nonzero" group-id="1,2" id="Path" node-id="31" stroke="none" target-height="91.20001" target-width="89.5" target-x="347.7" target-y="352.5"></path></g></g></svg>